<svg xmlns:xlink="http://www.w3.org/1999/xlink" xmlns="http://www.w3.org/2000/svg" class="framer-ObTIB framer-31uwra" role="presentation" viewBox="0 0 24 24" width="24"  height="24" ><defs><svg display="block" role="presentation" viewBox="0 0 24 24" xmlns="http://www.w3.org/2000/svg" id="971988595"><path d="M 8.795 15.877 L 11.881 12.839 C 12.286 12.435 12.488 12.232 12.728 12.12 C 12.941 12.021 13.173 11.974 13.407 11.981 C 13.672 11.989 13.938 12.095 14.469 12.308 L 16.055 12.942 C 16.744 13.218 17.089 13.356 17.315 13.594 C 17.514 13.803 17.648 14.066 17.701 14.35 C 17.762 14.672 17.672 15.032 17.492 15.753 L 17 17.72 C 7 17.72 0 10.72 0 0.72 L 1.968 0.228 C 2.688 0.048 3.048 -0.042 3.37 0.019 C 3.654 0.072 3.917 0.206 4.127 0.405 C 4.364 0.631 4.502 0.976 4.778 1.665 L 5.489 3.442 C 5.675 3.908 5.768 4.141 5.784 4.376 C 5.798 4.585 5.769 4.794 5.697 4.991 C 5.617 5.213 5.463 5.411 5.155 5.807 L 2.116 9.447" fill="#000000" height="17.72019999227099px" id="zq2VHUuq9" stroke-dasharray="" stroke-linecap="round" stroke-linejoin="round" stroke-width="1.5px" stroke="#000000" transform="translate(3 3.28)" width="17.720203459679766px" fill-opacity="0"></path></svg></defs><use href="#971988595"></use></svg>